<svg width="1032" height="1032" viewBox="0 0 1032 1032" fill="none" xmlns="http://www.w3.org/2000/svg">
<g filter="url(#filter0_d_73_17)">
<g clip-path="url(#clip0_73_17)">
<rect x="4" y="352" width="1024" height="320" fill="#128FE8"/>
<path d="M1028 371V379H4V371H1028Z" fill="#FAF6EE"/>
<path d="M1029 646V654H5V646H1029Z" fill="#FAF6EE"/>
<path d="M340.336 528.864C339.536 528.864 338.928 528.624 338.512 528.144C338.128 527.696 337.984 527.12 338.08 526.416C338.624 522.448 339.12 518.528 339.568 514.656C340.016 510.784 340.544 506.768 341.152 502.608C341.408 501.072 341.6 499.76 341.728 498.672C341.888 497.584 342.144 496.736 342.496 496.128C342.848 495.488 343.456 495.12 344.32 495.024C344.96 494.96 345.568 495.216 346.144 495.792C346.72 496.368 346.944 497.376 346.816 498.816C346.528 501.824 346.144 505.056 345.664 508.512C345.216 511.968 344.72 515.488 344.176 519.072L343.504 523.584C346.16 523.456 348.688 523.296 351.088 523.104C353.488 522.88 355.456 522.8 356.992 522.864C357.824 522.896 358.544 523.072 359.152 523.392C359.792 523.712 360.176 524.288 360.304 525.12C360.592 526.816 359.296 527.712 356.416 527.808C354.24 527.872 351.728 528.048 348.88 528.336C346.064 528.656 343.216 528.832 340.336 528.864ZM385.464 528.528C384.536 528.528 383.784 528.208 383.208 527.568C382.664 526.896 382.392 526.048 382.392 525.024C382.392 523.392 382.504 521.968 382.728 520.752C382.952 519.536 383.32 518.272 383.832 516.96C381.624 520.576 379.352 523.408 377.016 525.456C374.68 527.472 372.072 528.48 369.192 528.48C366.952 528.48 365.352 527.824 364.392 526.512C363.464 525.168 363 523.568 363 521.712C363 519.632 363.352 517.504 364.056 515.328C364.792 513.152 365.8 511.152 367.08 509.328C368.392 507.472 369.896 505.984 371.592 504.864C373.288 503.744 375.112 503.184 377.064 503.184C378.76 503.184 380.136 503.536 381.192 504.24C382.28 504.944 382.824 505.824 382.824 506.88C382.824 507.424 382.648 507.856 382.296 508.176C381.976 508.464 381.56 508.608 381.048 508.608C380.536 508.608 380.088 508.544 379.704 508.416C379.352 508.256 378.968 508.112 378.552 507.984C378.136 507.856 377.592 507.792 376.92 507.792C375.864 507.792 374.808 508.208 373.752 509.04C372.728 509.84 371.784 510.896 370.92 512.208C370.088 513.52 369.416 514.912 368.904 516.384C368.424 517.824 368.184 519.2 368.184 520.512C368.184 522.4 368.872 523.344 370.248 523.344C370.792 523.344 371.336 523.216 371.88 522.96C372.456 522.672 373.128 522.192 373.896 521.52C374.696 520.816 375.672 519.84 376.824 518.592C377.624 517.728 378.536 516.608 379.56 515.232C380.584 513.856 381.64 512.368 382.728 510.768C383.816 509.168 384.84 507.632 385.8 506.16C386.568 504.944 387.224 504.144 387.768 503.76C388.344 503.376 388.936 503.184 389.544 503.184C390.28 503.184 390.824 503.392 391.176 503.808C391.528 504.192 391.704 504.656 391.704 505.2C391.704 505.744 391.56 506.56 391.272 507.648C390.984 508.704 390.616 509.92 390.168 511.296C389.752 512.64 389.32 514.016 388.872 515.424C388.424 516.832 388.056 518.144 387.768 519.36C387.48 520.576 387.336 521.584 387.336 522.384C387.336 522.704 387.4 522.944 387.528 523.104C387.688 523.264 387.848 523.344 388.008 523.344C388.232 523.344 388.488 523.296 388.776 523.2C389.064 523.104 389.368 523.056 389.688 523.056C390.04 523.056 390.392 523.184 390.744 523.44C391.128 523.696 391.32 524.144 391.32 524.784C391.32 525.648 391.016 526.368 390.408 526.944C389.8 527.488 389.048 527.888 388.152 528.144C387.256 528.4 386.36 528.528 385.464 528.528ZM416.307 528.528C415.027 528.528 413.987 528.224 413.187 527.616C412.419 527.008 412.035 526.064 412.035 524.784C412.035 523.728 412.211 522.576 412.563 521.328C412.915 520.048 413.331 518.768 413.811 517.488C414.323 516.176 414.771 514.928 415.155 513.744C415.571 512.56 415.827 511.52 415.923 510.624C416.083 509.664 415.795 509.184 415.059 509.184C414.611 509.184 414.115 509.312 413.571 509.568C413.027 509.824 412.355 510.288 411.555 510.96C410.787 511.632 409.795 512.592 408.579 513.84C407.715 514.736 406.803 515.76 405.843 516.912C404.915 518.032 404.003 519.184 403.107 520.368C402.243 521.52 401.427 522.64 400.659 523.728C399.923 524.784 399.299 525.68 398.787 526.416C398.147 527.312 397.475 527.872 396.771 528.096C396.099 528.32 395.443 528.32 394.803 528.096C393.587 527.584 393.251 526.272 393.795 524.16C394.371 521.952 395.011 519.616 395.715 517.152C396.451 514.656 397.187 512.24 397.923 509.904C398.691 507.568 399.395 505.552 400.035 503.856C400.355 503.024 400.771 502.48 401.283 502.224C401.795 501.936 402.355 501.872 402.963 502.032C403.699 502.16 404.195 502.512 404.451 503.088C404.739 503.664 404.755 504.304 404.499 505.008C403.987 506.672 403.443 508.448 402.867 510.336C402.291 512.224 401.811 513.936 401.427 515.472C404.211 511.632 406.931 508.576 409.587 506.304C412.243 504.032 414.595 502.896 416.643 502.896C418.115 502.896 419.267 503.36 420.099 504.288C420.931 505.216 421.347 506.448 421.347 507.984C421.347 509.168 421.171 510.448 420.819 511.824C420.467 513.2 420.051 514.576 419.571 515.952C419.123 517.296 418.723 518.56 418.371 519.744C418.019 520.896 417.843 521.84 417.843 522.576C417.843 523.088 418.035 523.344 418.419 523.344C418.675 523.344 419.043 523.264 419.523 523.104C420.035 522.944 420.547 522.96 421.059 523.152C421.539 523.312 421.843 523.648 421.971 524.16C422.099 524.672 422.083 525.2 421.923 525.744C421.699 526.512 421.027 527.168 419.907 527.712C418.819 528.256 417.619 528.528 416.307 528.528ZM428.535 546C427.159 546 425.879 545.6 424.695 544.8C423.511 544.032 422.567 542.864 421.863 541.296C421.127 539.728 420.759 537.776 420.759 535.44C420.759 534.448 420.983 533.696 421.431 533.184C421.879 532.704 422.407 532.416 423.015 532.32C423.591 532.256 424.135 532.368 424.647 532.656C425.191 532.976 425.527 533.424 425.655 534C426.135 536.144 426.647 537.728 427.191 538.752C427.767 539.776 428.663 540.288 429.879 540.288C430.871 540.288 431.863 539.792 432.855 538.8C433.847 537.808 434.839 536.464 435.831 534.768C436.855 533.072 437.863 531.136 438.855 528.96C439.847 526.784 440.823 524.512 441.783 522.144C440.151 524.192 438.503 525.728 436.839 526.752C435.175 527.776 433.383 528.288 431.463 528.288C429.991 528.288 428.759 527.984 427.767 527.376C426.775 526.736 426.023 525.92 425.511 524.928C425.031 523.936 424.791 522.88 424.791 521.76C424.791 519.456 425.223 517.184 426.087 514.944C426.951 512.704 428.135 510.672 429.639 508.848C431.143 507.024 432.871 505.552 434.823 504.432C436.807 503.28 438.903 502.656 441.111 502.56C442.391 502.496 443.303 502.624 443.847 502.944C444.423 503.232 444.759 503.68 444.855 504.288C444.983 505.568 444.039 506.448 442.023 506.928C440.487 507.28 438.999 507.92 437.559 508.848C436.151 509.776 434.887 510.88 433.767 512.16C432.679 513.408 431.799 514.752 431.127 516.192C430.487 517.6 430.167 518.976 430.167 520.32C430.167 521.248 430.375 521.968 430.791 522.48C431.207 522.96 431.751 523.2 432.423 523.2C433.351 523.2 434.311 522.816 435.303 522.048C436.295 521.28 437.463 520.08 438.807 518.448C439.543 517.552 440.311 516.512 441.111 515.328C441.943 514.112 442.823 512.656 443.751 510.96C444.679 509.264 445.623 507.2 446.583 504.768C447.031 503.68 447.559 502.752 448.167 501.984C448.775 501.216 449.463 500.832 450.231 500.832C450.967 500.832 451.543 501.104 451.959 501.648C452.375 502.192 452.503 503.072 452.343 504.288C452.247 505.056 452.023 506.064 451.671 507.312C451.319 508.56 450.823 510.16 450.183 512.112C449.543 514.032 448.711 516.416 447.687 519.264C446.855 521.568 446.007 523.968 445.143 526.464C444.279 528.928 443.335 531.312 442.311 533.616C441.287 535.952 440.119 538.048 438.807 539.904C437.527 541.76 436.039 543.232 434.343 544.32C432.679 545.44 430.743 546 428.535 546ZM471.932 528.528C471.004 528.528 470.252 528.208 469.676 527.568C469.132 526.896 468.86 526.048 468.86 525.024C468.86 522.656 469.26 520.256 470.06 517.824C468.204 521.184 466.268 523.808 464.252 525.696C462.268 527.552 460.044 528.48 457.58 528.48C455.82 528.48 454.444 528.016 453.452 527.088C452.492 526.16 452.012 524.752 452.012 522.864C452.012 521.808 452.156 520.528 452.444 519.024C452.732 517.488 453.116 515.888 453.596 514.224C454.076 512.528 454.588 510.896 455.132 509.328C455.676 507.76 456.204 506.4 456.716 505.248C457.228 504.096 457.996 503.52 459.02 503.52C459.66 503.52 460.156 503.728 460.508 504.144C460.892 504.528 461.084 504.992 461.084 505.536C461.084 505.824 460.94 506.432 460.652 507.36C460.364 508.288 460.012 509.408 459.596 510.72C459.212 512 458.812 513.312 458.396 514.656C457.98 516 457.628 517.232 457.34 518.352C457.052 519.472 456.908 520.336 456.908 520.944C456.908 521.744 457.068 522.352 457.388 522.768C457.74 523.152 458.156 523.344 458.636 523.344C459.084 523.344 459.564 523.216 460.076 522.96C460.588 522.672 461.196 522.144 461.9 521.376C462.604 520.608 463.468 519.456 464.492 517.92L472.268 506.16C473.068 504.944 473.74 504.144 474.284 503.76C474.828 503.376 475.404 503.184 476.012 503.184C476.748 503.184 477.292 503.392 477.644 503.808C477.996 504.192 478.172 504.656 478.172 505.2C478.172 505.808 478.028 506.656 477.74 507.744C477.452 508.8 477.084 510 476.636 511.344C476.22 512.656 475.788 514 475.34 515.376C474.892 516.72 474.524 518.016 474.236 519.264C473.948 520.48 473.804 521.52 473.804 522.384C473.804 522.704 473.868 522.944 473.996 523.104C474.156 523.264 474.316 523.344 474.476 523.344C474.7 523.344 474.956 523.296 475.244 523.2C475.532 523.104 475.836 523.056 476.156 523.056C476.508 523.056 476.86 523.184 477.212 523.44C477.596 523.696 477.788 524.144 477.788 524.784C477.788 525.648 477.484 526.368 476.876 526.944C476.268 527.488 475.516 527.888 474.62 528.144C473.724 528.4 472.828 528.528 471.932 528.528ZM489.927 528.576C488.295 528.576 486.775 528.224 485.367 527.52C483.991 526.784 482.871 525.728 482.007 524.352C481.175 522.944 480.759 521.216 480.759 519.168C480.759 517.056 481.191 514.96 482.055 512.88C482.951 510.8 484.135 508.912 485.607 507.216C487.111 505.488 488.775 504.112 490.599 503.088C492.455 502.064 494.343 501.552 496.263 501.552C498.375 501.552 500.007 502.112 501.159 503.232C502.311 504.352 502.887 506.048 502.887 508.32C502.887 509.728 502.471 511.072 501.639 512.352C500.807 513.6 499.735 514.704 498.423 515.664C497.111 516.624 495.687 517.392 494.151 517.968C492.647 518.512 491.207 518.784 489.831 518.784C488.935 518.784 488.183 518.72 487.575 518.592C486.999 518.464 486.455 518.256 485.943 517.968C485.911 518.384 485.895 518.8 485.895 519.216C485.831 521.968 487.463 523.344 490.791 523.344C491.847 523.344 492.759 523.232 493.527 523.008C494.327 522.784 495.127 522.4 495.927 521.856C496.727 521.28 497.655 520.528 498.711 519.6C499.063 519.248 499.495 518.96 500.007 518.736C500.551 518.512 501.127 518.48 501.735 518.64C502.471 518.832 502.951 519.344 503.175 520.176C503.431 521.008 503.223 521.808 502.551 522.576C500.823 524.624 498.823 526.144 496.551 527.136C494.311 528.096 492.103 528.576 489.927 528.576ZM495.639 506.544C494.743 506.544 493.751 506.832 492.663 507.408C491.575 507.952 490.519 508.752 489.495 509.808C488.503 510.864 487.687 512.144 487.047 513.648C487.879 513.904 488.839 514.032 489.927 514.032C491.399 514.032 492.711 513.76 493.863 513.216C495.015 512.64 495.927 511.92 496.599 511.056C497.271 510.192 497.607 509.328 497.607 508.464C497.607 507.984 497.447 507.552 497.127 507.168C496.807 506.784 496.311 506.576 495.639 506.544ZM541.404 528.528C539.932 528.528 538.732 528.144 537.804 527.376C536.876 526.576 536.412 525.232 536.412 523.344C536.444 522.512 536.492 521.728 536.556 520.992C534.924 523.488 533.212 525.36 531.42 526.608C529.66 527.856 527.724 528.48 525.612 528.48C524.3 528.48 523.196 528.16 522.3 527.52C521.404 526.88 520.732 526.048 520.284 525.024C519.836 523.968 519.612 522.864 519.612 521.712C519.612 519.536 519.964 517.36 520.668 515.184C521.372 512.976 522.364 510.96 523.644 509.136C524.956 507.28 526.492 505.776 528.252 504.624C530.044 503.44 532.012 502.8 534.156 502.704C535.436 502.64 536.348 502.768 536.892 503.088C537.468 503.376 537.804 503.824 537.9 504.432C538.028 505.712 537.084 506.592 535.068 507.072C533.724 507.392 532.428 508.016 531.18 508.944C529.964 509.84 528.876 510.928 527.916 512.208C526.956 513.488 526.188 514.848 525.612 516.288C525.068 517.728 524.796 519.136 524.796 520.512C524.796 521.408 524.956 522.112 525.276 522.624C525.628 523.104 526.06 523.344 526.572 523.344C527.5 523.344 528.46 522.96 529.452 522.192C530.444 521.424 531.612 520.224 532.956 518.592C534.14 517.152 535.276 515.376 536.364 513.264C537.484 511.152 538.668 508.592 539.916 505.584C541.196 502.576 542.652 499.024 544.284 494.928C544.732 493.84 545.26 492.928 545.868 492.192C546.476 491.424 547.164 491.04 547.932 491.04C548.604 491.04 549.116 491.232 549.468 491.616C549.852 492 550.044 492.416 550.044 492.864C550.044 493.952 549.692 495.36 548.988 497.088C548.316 498.816 547.42 500.928 546.3 503.424C545.212 505.888 544.06 508.832 542.844 512.256C542.108 514.336 541.612 516.224 541.356 517.92C541.1 519.584 541.1 520.912 541.356 521.904C541.612 522.864 542.14 523.344 542.94 523.344C543.388 523.344 543.788 523.28 544.14 523.152C544.524 522.992 544.94 523.024 545.388 523.248C545.836 523.472 546.108 523.824 546.204 524.304C546.3 524.752 546.268 525.248 546.108 525.792C545.884 526.56 545.308 527.216 544.38 527.76C543.484 528.272 542.492 528.528 541.404 528.528ZM558.458 528.576C556.826 528.576 555.306 528.224 553.898 527.52C552.522 526.784 551.402 525.728 550.538 524.352C549.706 522.944 549.29 521.216 549.29 519.168C549.29 517.056 549.722 514.96 550.586 512.88C551.482 510.8 552.666 508.912 554.138 507.216C555.642 505.488 557.306 504.112 559.13 503.088C560.986 502.064 562.874 501.552 564.794 501.552C566.906 501.552 568.538 502.112 569.69 503.232C570.842 504.352 571.418 506.048 571.418 508.32C571.418 509.728 571.002 511.072 570.17 512.352C569.338 513.6 568.266 514.704 566.954 515.664C565.642 516.624 564.218 517.392 562.682 517.968C561.178 518.512 559.738 518.784 558.362 518.784C557.466 518.784 556.714 518.72 556.106 518.592C555.53 518.464 554.986 518.256 554.474 517.968C554.442 518.384 554.426 518.8 554.426 519.216C554.362 521.968 555.994 523.344 559.322 523.344C560.378 523.344 561.29 523.232 562.058 523.008C562.858 522.784 563.658 522.4 564.458 521.856C565.258 521.28 566.186 520.528 567.242 519.6C567.594 519.248 568.026 518.96 568.538 518.736C569.082 518.512 569.658 518.48 570.266 518.64C571.002 518.832 571.482 519.344 571.706 520.176C571.962 521.008 571.754 521.808 571.082 522.576C569.354 524.624 567.354 526.144 565.082 527.136C562.842 528.096 560.634 528.576 558.458 528.576ZM564.17 506.544C563.274 506.544 562.282 506.832 561.194 507.408C560.106 507.952 559.05 508.752 558.026 509.808C557.034 510.864 556.218 512.144 555.578 513.648C556.41 513.904 557.37 514.032 558.458 514.032C559.93 514.032 561.242 513.76 562.394 513.216C563.546 512.64 564.458 511.92 565.13 511.056C565.802 510.192 566.138 509.328 566.138 508.464C566.138 507.984 565.978 507.552 565.658 507.168C565.338 506.784 564.842 506.576 564.17 506.544ZM597.455 528.384C595.471 528.384 593.839 527.888 592.559 526.896C591.279 525.904 590.335 524.608 589.727 523.008C589.119 521.376 588.815 519.616 588.815 517.728C588.815 516 589.071 514.272 589.583 512.544C590.095 510.784 590.831 509.184 591.791 507.744C592.783 506.272 593.983 505.088 595.391 504.192C596.799 503.264 598.399 502.784 600.191 502.752C601.471 502.752 602.751 502.912 604.031 503.232C605.343 503.552 606.431 504.032 607.295 504.672C608.191 505.28 608.623 506.016 608.591 506.88C608.591 507.424 608.399 507.92 608.015 508.368C607.631 508.784 607.119 508.992 606.479 508.992C606.063 508.992 605.615 508.864 605.135 508.608C604.687 508.352 604.159 508.096 603.551 507.84C602.975 507.552 602.255 507.424 601.391 507.456C599.663 507.488 598.207 508 597.023 508.992C595.871 509.984 595.007 511.264 594.431 512.832C593.855 514.368 593.567 515.984 593.567 517.68C593.599 518.544 593.695 519.424 593.855 520.32C594.047 521.216 594.431 521.968 595.007 522.576C595.583 523.184 596.447 523.488 597.599 523.488C598.719 523.488 599.855 523.152 601.007 522.48C601.295 522.352 601.663 522.112 602.111 521.76C602.591 521.376 603.087 521.024 603.599 520.704C604.143 520.352 604.655 520.176 605.135 520.176C605.839 520.208 606.319 520.464 606.575 520.944C606.831 521.392 606.959 521.792 606.959 522.144C606.959 523.008 606.655 523.824 606.047 524.592C605.439 525.328 604.639 525.984 603.647 526.56C602.687 527.136 601.647 527.584 600.527 527.904C599.439 528.224 598.415 528.384 597.455 528.384ZM611.73 528.576C611.122 528.608 610.562 528.32 610.05 527.712C609.538 527.072 609.394 526.032 609.618 524.592C610.194 521.488 610.85 518.192 611.586 514.704C612.354 511.184 613.234 507.6 614.226 503.952C615.09 500.72 615.826 498.128 616.434 496.176C617.042 494.192 617.538 492.784 617.922 491.952C618.21 491.312 618.562 490.864 618.978 490.608C619.426 490.32 619.858 490.176 620.274 490.176C621.106 490.176 621.698 490.448 622.05 490.992C622.402 491.504 622.498 492.112 622.338 492.816C621.538 496.368 620.706 499.888 619.842 503.376C619.01 506.832 618.162 510.368 617.298 513.984C619.89 510.56 622.402 507.856 624.834 505.872C627.298 503.888 629.49 502.896 631.41 502.896C632.882 502.896 634.034 503.36 634.866 504.288C635.698 505.216 636.114 506.448 636.114 507.984C636.114 509.168 635.938 510.448 635.586 511.824C635.234 513.2 634.818 514.576 634.338 515.952C633.89 517.296 633.49 518.56 633.138 519.744C632.786 520.896 632.61 521.84 632.61 522.576C632.61 523.088 632.802 523.344 633.186 523.344C633.442 523.344 633.81 523.264 634.29 523.104C634.802 522.944 635.314 522.96 635.826 523.152C636.306 523.312 636.61 523.648 636.738 524.16C636.866 524.672 636.85 525.2 636.69 525.744C636.466 526.512 635.794 527.168 634.674 527.712C633.586 528.256 632.386 528.528 631.074 528.528C629.794 528.528 628.754 528.224 627.954 527.616C627.186 527.008 626.802 526.064 626.802 524.784C626.802 523.728 626.978 522.576 627.33 521.328C627.682 520.048 628.098 518.768 628.578 517.488C629.09 516.176 629.538 514.928 629.922 513.744C630.338 512.56 630.594 511.52 630.69 510.624C630.85 509.664 630.562 509.184 629.826 509.184C629.378 509.184 628.882 509.312 628.338 509.568C627.794 509.824 627.122 510.288 626.322 510.96C625.554 511.632 624.562 512.592 623.346 513.84C621.906 515.312 620.546 516.992 619.266 518.88C618.018 520.736 616.946 522.464 616.05 524.064C615.186 525.568 614.466 526.688 613.89 527.424C613.346 528.16 612.626 528.544 611.73 528.576ZM661.605 528.528C660.677 528.528 659.925 528.208 659.349 527.568C658.805 526.896 658.533 526.048 658.533 525.024C658.533 523.392 658.645 521.968 658.869 520.752C659.093 519.536 659.461 518.272 659.973 516.96C657.765 520.576 655.493 523.408 653.157 525.456C650.821 527.472 648.213 528.48 645.333 528.48C643.093 528.48 641.493 527.824 640.533 526.512C639.605 525.168 639.141 523.568 639.141 521.712C639.141 519.632 639.493 517.504 640.197 515.328C640.933 513.152 641.941 511.152 643.221 509.328C644.533 507.472 646.037 505.984 647.733 504.864C649.429 503.744 651.253 503.184 653.205 503.184C654.901 503.184 656.277 503.536 657.333 504.24C658.421 504.944 658.965 505.824 658.965 506.88C658.965 507.424 658.789 507.856 658.437 508.176C658.117 508.464 657.701 508.608 657.189 508.608C656.677 508.608 656.229 508.544 655.845 508.416C655.493 508.256 655.109 508.112 654.693 507.984C654.277 507.856 653.733 507.792 653.061 507.792C652.005 507.792 650.949 508.208 649.893 509.04C648.869 509.84 647.925 510.896 647.061 512.208C646.229 513.52 645.557 514.912 645.045 516.384C644.565 517.824 644.325 519.2 644.325 520.512C644.325 522.4 645.013 523.344 646.389 523.344C646.933 523.344 647.477 523.216 648.021 522.96C648.597 522.672 649.269 522.192 650.037 521.52C650.837 520.816 651.813 519.84 652.965 518.592C653.765 517.728 654.677 516.608 655.701 515.232C656.725 513.856 657.781 512.368 658.869 510.768C659.957 509.168 660.981 507.632 661.941 506.16C662.709 504.944 663.365 504.144 663.909 503.76C664.485 503.376 665.077 503.184 665.685 503.184C666.421 503.184 666.965 503.392 667.317 503.808C667.669 504.192 667.845 504.656 667.845 505.2C667.845 505.744 667.701 506.56 667.413 507.648C667.125 508.704 666.757 509.92 666.309 511.296C665.893 512.64 665.461 514.016 665.013 515.424C664.565 516.832 664.197 518.144 663.909 519.36C663.621 520.576 663.477 521.584 663.477 522.384C663.477 522.704 663.541 522.944 663.669 523.104C663.829 523.264 663.989 523.344 664.149 523.344C664.373 523.344 664.629 523.296 664.917 523.2C665.205 523.104 665.509 523.056 665.829 523.056C666.181 523.056 666.533 523.184 666.885 523.44C667.269 523.696 667.461 524.144 667.461 524.784C667.461 525.648 667.157 526.368 666.549 526.944C665.941 527.488 665.189 527.888 664.293 528.144C663.397 528.4 662.501 528.528 661.605 528.528ZM679.247 528.576C677.839 528.512 676.719 528.176 675.887 527.568C675.087 526.96 674.511 526.16 674.159 525.168C673.839 524.144 673.679 523.024 673.679 521.808C673.679 520.528 673.855 519.024 674.207 517.296C674.591 515.568 675.087 513.76 675.695 511.872C675.375 511.904 675.071 511.936 674.783 511.968C674.495 511.968 674.207 511.968 673.919 511.968C671.071 512.064 669.711 511.248 669.839 509.52C669.935 508.688 670.287 508.096 670.895 507.744C671.503 507.36 672.207 507.136 673.007 507.072C673.551 507.008 674.207 506.96 674.975 506.928C675.743 506.864 676.575 506.816 677.471 506.784C678.143 504.96 678.847 503.232 679.583 501.6C680.319 499.968 680.991 498.576 681.599 497.424C682.047 496.56 682.511 495.952 682.991 495.6C683.471 495.248 684.079 495.136 684.815 495.264C685.935 495.424 686.495 496.144 686.495 497.424C686.495 498.128 686.335 498.976 686.015 499.968C685.695 500.96 685.327 501.968 684.911 502.992C684.687 503.568 684.447 504.16 684.191 504.768C683.967 505.344 683.727 505.92 683.471 506.496C684.559 506.464 685.583 506.448 686.543 506.448C687.503 506.416 688.335 506.4 689.039 506.4C689.871 506.4 690.639 506.528 691.343 506.784C692.079 507.04 692.415 507.632 692.351 508.56C692.319 509.232 691.999 509.744 691.391 510.096C690.783 510.448 690.015 510.688 689.087 510.816C687.967 510.976 686.751 511.12 685.439 511.248C684.127 511.344 682.815 511.44 681.503 511.536C680.767 513.552 680.143 515.44 679.631 517.2C679.119 518.928 678.863 520.352 678.863 521.472C678.863 522.144 679.007 522.624 679.295 522.912C679.583 523.168 679.967 523.296 680.447 523.296C681.471 523.296 682.527 523.024 683.615 522.48C684.735 521.936 685.807 521.296 686.831 520.56C687.887 519.792 688.799 519.12 689.567 518.544C690.303 518 690.927 517.68 691.439 517.584C691.951 517.456 692.431 517.52 692.879 517.776C693.263 518 693.535 518.304 693.695 518.688C693.887 519.04 693.983 519.376 693.983 519.696C693.983 520.368 693.663 521.104 693.023 521.904C692.415 522.704 691.583 523.504 690.527 524.304C689.471 525.104 688.287 525.84 686.975 526.512C685.695 527.152 684.383 527.664 683.039 528.048C681.695 528.432 680.431 528.608 679.247 528.576Z" fill="white"/>
</g>
</g>
<defs>
<filter id="filter0_d_73_17" x="0" y="0" width="1032" height="1032" filterUnits="userSpaceOnUse" color-interpolation-filters="sRGB">
<feFlood flood-opacity="0" result="BackgroundImageFix"/>
<feColorMatrix in="SourceAlpha" type="matrix" values="0 0 0 0 0 0 0 0 0 0 0 0 0 0 0 0 0 0 127 0" result="hardAlpha"/>
<feOffset dy="4"/>
<feGaussianBlur stdDeviation="2"/>
<feComposite in2="hardAlpha" operator="out"/>
<feColorMatrix type="matrix" values="0 0 0 0 0 0 0 0 0 0 0 0 0 0 0 0 0 0 0.25 0"/>
<feBlend mode="normal" in2="BackgroundImageFix" result="effect1_dropShadow_73_17"/>
<feBlend mode="normal" in="SourceGraphic" in2="effect1_dropShadow_73_17" result="shape"/>
</filter>
<clipPath id="clip0_73_17">
<rect width="1024" height="1024" fill="white" transform="translate(4)"/>
</clipPath>
</defs>
</svg>
